<?xml version="1.0" encoding="iso-8859-1"?>
<!-- Uploaded to: SVG Repo, www.svgrepo.com, Generator: SVG Repo Mixer Tools -->
<svg height="800px" width="800px" version="1.1" id="Layer_1" xmlns="http://www.w3.org/2000/svg" xmlns:xlink="http://www.w3.org/1999/xlink" 
	 viewBox="0 0 511.999 511.999" xml:space="preserve">
<path style="fill:#CE4500;" d="M291.503,215.253h199.549c5.771,0,10.449,4.678,10.449,10.449v35.506
	c0,5.771-4.678,10.449-10.449,10.449H20.899c-5.771,0-10.449-4.678-10.449-10.449v-35.506c0-5.771,4.678-10.449,10.449-10.449
	h235.077"/>
<circle style="fill:#FFD940;" cx="255.975" cy="243.456" r="28.203"/>
<path style="fill:#ED732F;" d="M475.394,271.678v166.99c0,26.086-21.146,47.232-47.232,47.232H83.757
	c-26.086,0-47.232-21.146-47.232-47.232v-166.99"/>
<path style="fill:#FF9D3B;" d="M469.294,215.253c33.429-66.372,42.534-126.437,19.419-139.782
	c-25.737-14.859-81.661,33.824-124.911,108.736c-6.028,10.441-11.49,20.839-16.359,31.046H469.294z"/>
<g>
	<path style="fill:#4BDD6B;" d="M313.208,103.342c-24.058-23.365-59.61-26.698-83.178-8.775c-2.411-4.842-5.62-9.389-9.655-13.424
		c-20.043-20.043-52.539-20.043-72.582,0c-0.22,0.22-0.424,0.45-0.641,0.673v15.77c0,70.034,47.575,58.179,47.575,117.666h61.247
		h2.901L313.208,103.342z"/>
	<path style="fill:#4BDD6B;" d="M364.901,175.687c-8.528-8.528-19.31-13.414-30.427-14.687c1.357-10.63-0.106-21.8-4.287-32.362
		l-42.051,86.615h3.369h55.939c4.869-10.207,10.332-20.605,16.359-31.046c1.155-2,2.32-3.977,3.492-5.939
		C366.526,177.389,365.738,176.524,364.901,175.687z"/>
</g>
<path style="fill:#B047AA;" d="M194.728,215.253c0-59.487-47.575-47.631-47.575-117.666V26.099h-44.228v71.488
	c0,70.034-47.575,58.179-47.575,117.666H194.728z"/>
<polygon style="fill:#CE4500;" points="280.867,230.221 365.883,55.111 336.625,55.111 258.807,215.395 "/>
<path d="M491.052,204.803h-5.167c26.665-58.593,38.59-120.751,8.052-138.383c-11.752-6.785-33.084-8.498-67.973,21.872
	c-20.655,17.98-41.916,43.768-60.971,73.78c-5.926-4.343-12.512-7.578-19.585-9.554c-0.075-7.784-1.404-15.646-3.908-23.262
	l33.782-69.584c1.572-3.238,1.367-7.057-0.544-10.109c-1.911-3.051-5.257-4.904-8.857-4.904h-29.258c-4.002,0-7.652,2.286-9.4,5.885
	L309.563,86.92c-23.324-15.993-52.897-18.662-76.206-6.74c-1.711-2.263-3.579-4.409-5.595-6.425
	c-11.667-11.668-27.178-18.093-43.679-18.093c-9.314,0-18.312,2.049-26.482,5.93V26.099c0-5.771-4.678-10.449-10.449-10.449h-44.228
	c-5.771,0-10.449,4.678-10.449,10.449v71.488c0,32.426-10.449,43.999-22.548,57.399c-10.394,11.511-22.008,24.394-24.522,49.818
	H20.899C9.375,204.803,0,214.179,0,225.702v35.506c0,11.523,9.375,20.899,20.899,20.899h5.178v156.561
	c0,31.805,25.875,57.682,57.682,57.682h344.404c31.805,0,57.681-25.875,57.681-57.682V282.106h5.21
	c11.523,0,20.898-9.375,20.898-20.899v-35.506C511.951,214.179,502.576,204.803,491.052,204.803z M439.686,104.056
	c22.853-19.893,37.879-22.958,43.802-19.536c12.621,7.286,12.061,52.862-20.682,120.283h-98.433
	c2.71-5.149,5.542-10.286,8.479-15.372c1.126-1.951,2.265-3.885,3.412-5.805h0.001c0.006-0.011,0.011-0.023,0.019-0.034
	C395.848,150.834,418.209,122.753,439.686,104.056z M324.53,164.213c0.375,1.16,0.953,2.256,1.72,3.233
	c1.724,2.2,4.258,3.616,7.034,3.935c7.746,0.887,14.873,3.862,20.855,8.667l0.01,0.002c-4.693,8.178-9.119,16.472-13.226,24.753
	h-36.101L324.53,164.213L324.53,164.213z M407.188,282.106l57.757,57.757v50.02c-0.383,0.289-0.758,0.598-1.108,0.948
	l-16.186,16.186l-42.189-42.189l7.987-7.987c4.08-4.08,4.081-10.697,0-14.777c-4.082-4.08-10.697-4.08-14.777,0l-7.987,7.987
	l-42.194-42.194l25.75-25.75L407.188,282.106L407.188,282.106z M462.43,421.794l2.515-2.515v5.03L462.43,421.794z M174.176,475.45
	l-53.608-53.608l42.192-42.192l42.19,42.19l-7.023,7.023c-4.08,4.08-4.08,10.697,0,14.778c2.041,2.041,4.715,3.061,7.389,3.061
	c2.674,0,5.349-1.02,7.389-3.061l7.023-7.023l38.832,38.832H174.176z M53.42,459.435c-4.062-5.914-6.445-13.067-6.445-20.768
	v-57.168l1.847-1.847l42.191,42.191L53.42,459.435z M63.599,364.874l42.192-42.192l42.191,42.191l-42.192,42.192L63.599,364.874z
	 M146.367,282.106h146.819l25.75,25.75l-42.191,42.191l-11.162-11.162c-4.08-4.079-10.697-4.079-14.778,0
	c-4.08,4.08-4.08,10.697,0,14.778l11.162,11.162l-42.237,42.237l-42.19-42.19l35.167-35.167c4.08-4.08,4.08-10.697,0-14.778
	c-4.08-4.079-10.697-4.079-14.778,0l-35.167,35.167l-42.191-42.191L146.367,282.106z M105.791,293.125l-11.019-11.019h22.039
	L105.791,293.125z M276.701,464.035l-42.194-42.194l42.237-42.237l42.194,42.194L276.701,464.035z M291.522,364.824l42.191-42.191
	l42.194,42.194l-42.192,42.191L291.522,364.824z M333.716,436.574l38.875,38.875H294.84L333.716,436.574z M348.494,421.797
	l42.192-42.191l42.189,42.189l-42.191,42.191L348.494,421.797z M333.714,293.078l-10.972-10.972h21.943L333.714,293.078z
	 M238.206,243.454c0-9.789,7.964-17.752,17.753-17.752s17.753,7.964,17.753,17.752c0,9.789-7.964,17.753-17.753,17.753
	S238.206,253.243,238.206,243.454z M343.167,65.56h6.027L278.17,211.85c-1.481-1.044-3.037-1.984-4.659-2.815L343.167,65.56z
	 M184.084,76.561c10.917,0,21.182,4.252,28.902,11.972c3.127,3.127,5.715,6.725,7.69,10.692c1.388,2.787,3.946,4.811,6.978,5.519
	c3.032,0.71,6.224,0.027,8.701-1.858c17.864-13.586,44.249-11.971,63.954,3.102l-47.975,98.815h-47.66
	c-2.514-25.424-14.128-38.307-24.522-49.818c-12.099-13.4-22.548-24.973-22.548-57.399V86.295
	C164.986,79.994,174.272,76.561,184.084,76.561z M136.704,36.549v7.606h-23.33v-7.606H136.704z M85.438,168.991
	c13.095-14.501,27.936-30.939,27.936-71.404V65.053h23.33v32.534c0,40.465,14.841,56.902,27.936,71.404
	c9.26,10.256,16.879,18.694,19.03,35.813H66.407C68.56,187.684,76.177,179.247,85.438,168.991z M20.899,225.702h200.745
	c-2.764,5.32-4.335,11.354-4.335,17.752c0,6.398,1.572,12.433,4.335,17.753H20.899V225.702z M65.217,282.106l25.797,25.797
	l-42.192,42.192l-1.847-1.847v-66.143h18.242V282.106z M69.741,472.668l36.049-36.049l38.829,38.829H83.757
	C78.796,475.45,74.064,474.457,69.741,472.668z M428.161,475.45h-19.388l38.878-38.879l14.964,14.964
	C457.387,465.489,443.918,475.45,428.161,475.45z M464.945,310.309l-28.203-28.203h28.203V310.309z M491.052,261.208H290.275
	c2.764-5.321,4.335-11.355,4.335-17.753c0-4.554-0.797-8.923-2.25-12.983l2.316-4.769h52.766h121.852h21.758V261.208z"/>
<path d="M447.605,142.817c0.894,0,1.806-0.116,2.711-0.358l19.524-5.231c5.575-1.493,8.883-7.224,7.389-12.797
	c-1.493-5.575-7.223-8.883-12.797-7.389l-19.524,5.231c-5.575,1.493-8.883,7.224-7.389,12.797
	C438.77,139.739,442.991,142.817,447.605,142.817z"/>
<path d="M406.203,189.31c1.251,4.669,5.472,7.748,10.087,7.748c0.894,0,1.806-0.116,2.711-0.358l19.524-5.231
	c5.575-1.493,8.883-7.224,7.389-12.797c-1.493-5.575-7.224-8.883-12.797-7.389l-19.524,5.231
	C408.017,178.006,404.709,183.737,406.203,189.31z"/>
<path d="M227.32,310.76c2.674,0,5.349-1.02,7.389-3.061l0.097-0.097c4.08-4.08,4.08-10.697,0-14.778
	c-4.08-4.08-10.697-4.08-14.778,0l-0.097,0.097c-4.08,4.08-4.08,10.697,0,14.778C221.973,309.74,224.646,310.76,227.32,310.76z"/>
<path d="M176.958,449.833l-0.097,0.097c-4.08,4.08-4.08,10.697,0,14.778c2.041,2.041,4.715,3.061,7.389,3.061
	c2.674,0,5.349-1.02,7.389-3.061l0.097-0.097c4.08-4.08,4.08-10.697,0-14.778C187.655,445.753,181.039,445.753,176.958,449.833z"/>
<path d="M425.46,340.501c2.674,0,5.349-1.02,7.389-3.061l0.097-0.097c4.08-4.08,4.08-10.697,0-14.778
	c-4.08-4.08-10.697-4.08-14.778,0l-0.097,0.097c-4.08,4.08-4.08,10.697,0,14.778C420.112,339.481,422.786,340.501,425.46,340.501z"
	/>
</svg>